# xmcd
#
# Track frame offsets: 
#        150
#        10890
#        24538
#        37709
#        50224
#        60769
#        72294
#        85965
#        101834
#
# Disc length: 1555 seconds
#
# Revision: 0
# Processed by: cddbd v1.5.1PL2 Copyright (c) Steve Scherf et al.
# Submitted via: ExactAudioCopy v0.95a5
#
DISCID=6b061109
DTITLE=Nelson, Willie - My Own Way
DYEAR=1900
DGENRE=
TTITLE0=I'm A Memory
TTITLE1=My Own Peculiar Way
TTITLE2=Both Sides Now
TTITLE3=Funny How Time Slips Away
TTITLE4=Hello Walls
TTITLE5=One In A Row
TTITLE6=Stay Away From Lonely Places
TTITLE7=Pins And Needles (In My Heart)
TTITLE8=Rainy Day Blues
EXTD=
EXTT0=
EXTT1=
EXTT2=
EXTT3=
EXTT4=
EXTT5=
EXTT6=
EXTT7=
EXTT8=
PLAYORDER=
